<svg width="24" height="30" viewBox="0 0 24 30" version="1.1" xmlns="http://www.w3.org/2000/svg" xmlns:xlink="http://www.w3.org/1999/xlink">
<title>Destination icon</title>
<desc>Created using Figma</desc>
<g id="Canvas" transform="translate(-1587 -917)">
<clipPath id="clip-0" clip-rule="evenodd">
<path d="M 1587 917L 1611 917L 1611 947L 1587 947L 1587 917Z" fill="#FFFFFF"/>
</clipPath>
<g id="Destination icon" clip-path="url(#clip-0)">
<g id="Icons/Destination_Bubble">
<g id="Union">
<use xlink:href="#path0_fill" transform="translate(1587 917)" fill="#665F66"/>
<use xlink:href="#path1_fill" transform="translate(1587 917)" fill="#665F66"/>
</g>
</g>
<g id="Icons/Pin-small">
<g id="Combined Shape">
<use xlink:href="#path2_fill" transform="translate(1594 922)" fill="#FFFFFF"/>
</g>
</g>
</g>
</g>
<defs>
<path id="path0_fill" d="M 12 0C 5.37259 0 0 5.37258 0 12C 0 18.6274 5.37259 24 12 24C 18.6274 24 24 18.6274 24 12C 24 5.37258 18.6274 0 12 0Z"/>
<path id="path1_fill" d="M 12 26C 10.8954 26 10 26.8954 10 28C 10 29.1046 10.8954 30 12 30C 13.1046 30 14 29.1046 14 28C 14 26.8954 13.1046 26 12 26Z"/>
<path id="path2_fill" fill-rule="evenodd" d="M 0 4.90002C 0 2.198 2.24292 0 5 0C 7.75708 0 10 2.198 10 4.90002C 10 7.97375 6.5022 12.2719 5.35767 13.5958C 5.1665 13.8169 4.8335 13.8169 4.64233 13.5958C 3.4978 12.2719 0 7.97375 0 4.90002ZM 7 5C 7 6.10461 6.10449 7 5 7C 3.89551 7 3 6.10461 3 5C 3 3.89539 3.89551 3 5 3C 6.10449 3 7 3.89539 7 5Z"/>
</defs>
</svg>
